<svg version="1.1" xmlns="http://www.w3.org/2000/svg" viewBox="0 0 1040 891.1111111111109" width="1040" height="891.1111111111109">
  <!-- svg-source:excalidraw -->
  
  <defs>
    <style class="style-fonts">
      @font-face {
        font-family: "Virgil";
        src: url("https://excalidraw.com/Virgil.woff2");
      }
      @font-face {
        font-family: "Cascadia";
        src: url("https://excalidraw.com/Cascadia.woff2");
      }
      @font-face {
        font-family: "Assistant";
        src: url("https://excalidraw.com/Assistant-Regular.woff2");
      }
    </style>
    
  </defs>
  <rect x="0" y="0" width="1040" height="891.1111111111109" fill="#ffffff"></rect><g stroke-linecap="round" transform="translate(372.2222222222208 310.00000000000045) rotate(0 148.34381551362753 135.55555555555566)"><path d="M191.34 6.28 C206.06 7.9, 220.94 15.17, 233.31 23.17 C245.67 31.17, 256.49 42.87, 265.54 54.27 C274.59 65.67, 282.58 78.64, 287.6 91.58 C292.63 104.53, 295.19 118.27, 295.7 131.94 C296.2 145.61, 294.97 160.11, 290.62 173.61 C286.27 187.11, 278.37 201.38, 269.6 212.95 C260.82 224.53, 250.11 234.49, 237.98 243.07 C225.84 251.64, 211.09 259.7, 196.78 264.41 C182.48 269.12, 167.5 271.32, 152.16 271.34 C136.81 271.37, 119.6 268.55, 104.71 264.57 C89.83 260.58, 75.3 255.17, 62.87 247.44 C50.44 239.72, 39.19 229.45, 30.12 218.21 C21.05 206.97, 13.51 193.23, 8.43 180.02 C3.35 166.81, -0.13 152.97, -0.38 138.94 C-0.62 124.92, 2.43 109.3, 6.95 95.85 C11.47 82.39, 18.2 69.52, 26.75 58.23 C35.3 46.94, 46.12 36.51, 58.24 28.11 C70.37 19.71, 84.96 12.5, 99.51 7.85 C114.05 3.19, 129.83 0.29, 145.51 0.17 C161.19 0.05, 185.05 5.55, 193.61 7.13 C202.17 8.72, 197.51 7.71, 196.86 9.67 M156.66 0.22 C170.95 -1.26, 187.57 4.71, 201.9 9.65 C216.24 14.6, 230.81 21.31, 242.68 29.89 C254.55 38.48, 265.12 49.21, 273.11 61.15 C281.1 73.09, 286.69 87.73, 290.62 101.53 C294.54 115.32, 297.55 130, 296.64 143.91 C295.73 157.83, 290.58 171.94, 285.17 185.02 C279.75 198.11, 273.55 211.83, 264.15 222.41 C254.75 232.99, 241.87 241.3, 228.79 248.48 C215.72 255.66, 200.34 261.83, 185.7 265.49 C171.05 269.14, 156.21 271.2, 140.91 270.41 C125.6 269.62, 108.13 265.78, 93.88 260.74 C79.63 255.7, 67.12 248.77, 55.41 240.16 C43.69 231.55, 32.01 220.76, 23.56 209.07 C15.12 197.38, 8.38 183.69, 4.71 170.01 C1.04 156.33, 0.6 141.21, 1.54 126.99 C2.47 112.78, 5.04 97.41, 10.31 84.72 C15.58 72.04, 23.28 61.61, 33.15 50.86 C43.03 40.11, 56.59 28.02, 69.57 20.22 C82.54 12.42, 96.49 7.52, 110.98 4.05 C125.47 0.58, 148.98 -0.45, 156.51 -0.6 C164.04 -0.75, 156.25 0.62, 156.18 3.16" stroke="#e03131" stroke-width="2" fill="none"></path></g><g stroke-linecap="round" transform="translate(36.28104575163434 390.2222222222224) rotate(0 89.47058823529414 42.5)"><path d="M83.47 -0.87 C95.44 -1.88, 109.7 1.24, 121.52 3.79 C133.35 6.34, 145.69 10.16, 154.45 14.44 C163.2 18.73, 170.14 23.88, 174.08 29.47 C178.03 35.06, 180.03 41.78, 178.12 47.98 C176.2 54.19, 169.98 61.54, 162.6 66.71 C155.21 71.88, 145 75.82, 133.8 79 C122.6 82.18, 108.19 85.24, 95.4 85.79 C82.61 86.33, 69.19 84.83, 57.08 82.29 C44.98 79.74, 31.82 75, 22.79 70.52 C13.77 66.04, 6.59 61.05, 2.94 55.4 C-0.72 49.75, -1.28 42.82, 0.86 36.62 C3 30.41, 8.52 23.29, 15.79 18.19 C23.07 13.09, 32.09 9.16, 44.52 6.02 C56.96 2.87, 81.7 0.16, 90.38 -0.69 C99.06 -1.55, 96.74 -0.02, 96.58 0.88 M95.35 -1.1 C107.75 -1.45, 122.89 2.44, 133.98 5.63 C145.07 8.82, 154.76 13.01, 161.9 18.05 C169.03 23.08, 174.3 29.6, 176.77 35.87 C179.25 42.14, 180.32 49.79, 176.73 55.65 C173.14 61.51, 164.29 66.62, 155.26 71.04 C146.22 75.46, 134.4 80.03, 122.52 82.19 C110.64 84.35, 96.82 84.67, 83.97 84 C71.11 83.33, 56.92 81.01, 45.4 78.17 C33.88 75.33, 22.18 71.73, 14.84 66.97 C7.5 62.21, 3.45 55.71, 1.37 49.62 C-0.7 43.53, -1.44 36.24, 2.39 30.43 C6.23 24.62, 15.38 19.52, 24.38 14.75 C33.38 9.99, 44.59 4.49, 56.38 1.84 C68.16 -0.81, 88.44 -0.93, 95.11 -1.16 C101.79 -1.39, 96.55 -0.27, 96.4 0.47" stroke="#e03131" stroke-width="2" fill="none"></path></g><g transform="translate(82.25304074135602 420.17018402179417) rotate(0 43.733333587646484 12.5)"><text x="43.733333587646484" y="17.52" font-family="Virgil, Segoe UI Emoji" font-size="20px" fill="#e03131" text-anchor="middle" style="white-space: pre;" direction="ltr" dominant-baseline="alphabetic">Transfer</text></g><g stroke-linecap="round" transform="translate(835.9477124183004 395.77777777777806) rotate(0 89.47058823529414 42.5)"><path d="M46.7 5.74 C56.9 2.2, 71.86 -0.04, 84.95 -0.57 C98.04 -1.11, 113.33 -0.03, 125.26 2.54 C137.18 5.12, 148.08 10.12, 156.48 14.87 C164.87 19.62, 172.23 24.98, 175.63 31.04 C179.03 37.09, 179.15 45.05, 176.9 51.19 C174.64 57.34, 169.83 63.25, 162.11 67.92 C154.38 72.59, 142.21 76.3, 130.54 79.22 C118.87 82.14, 104.87 84.97, 92.07 85.45 C79.26 85.92, 65.41 84.63, 53.72 82.06 C42.03 79.48, 30.42 74.7, 21.91 70.02 C13.41 65.34, 5.98 59.98, 2.69 53.98 C-0.59 47.98, -0.3 40.13, 2.19 34.01 C4.69 27.89, 8.17 22.44, 17.68 17.25 C27.18 12.06, 50.06 5.44, 59.21 2.88 C68.36 0.32, 71.97 1.27, 72.59 1.89 M54.19 3.14 C64.75 0.31, 80.03 -0.29, 93.35 0.24 C106.67 0.78, 122.69 3.42, 134.11 6.35 C145.53 9.29, 154.72 12.96, 161.88 17.84 C169.05 22.72, 174.79 29.72, 177.08 35.63 C179.38 41.53, 179.16 47.66, 175.65 53.29 C172.15 58.92, 164.91 64.64, 156.06 69.4 C147.2 74.17, 134.42 79.24, 122.54 81.88 C110.67 84.52, 97.72 85.61, 84.8 85.25 C71.87 84.89, 56.19 82.61, 45.01 79.73 C33.84 76.84, 24.95 73.17, 17.75 67.95 C10.55 62.73, 4.2 54.8, 1.81 48.4 C-0.57 42, -0.28 35.32, 3.43 29.55 C7.13 23.77, 15.48 18.31, 24.04 13.76 C32.6 9.21, 49.29 3.88, 54.78 2.23 C60.28 0.59, 56.37 2.99, 57.03 3.9" stroke="#e03131" stroke-width="2" fill="none"></path></g><g transform="translate(875.4530402327293 413.2257395773498) rotate(0 50.20000076293945 25)"><text x="50.20000076293945" y="17.52" font-family="Virgil, Segoe UI Emoji" font-size="20px" fill="#e03131" text-anchor="middle" style="white-space: pre;" direction="ltr" dominant-baseline="alphabetic">Transfer</text><text x="50.20000076293945" y="42.519999999999996" font-family="Virgil, Segoe UI Emoji" font-size="20px" fill="#e03131" text-anchor="middle" style="white-space: pre;" direction="ltr" dominant-baseline="alphabetic">Derivative</text></g><g stroke-linecap="round" transform="translate(755.0588235294135 530.6666666666667) rotate(0 89.47058823529414 42.5)"><path d="M123.29 2.15 C135.24 3.88, 146.44 9.46, 155.06 14.11 C163.69 18.77, 171.35 24.05, 175.05 30.07 C178.75 36.08, 179.21 44.03, 177.26 50.2 C175.31 56.37, 170.82 62.34, 163.35 67.1 C155.87 71.85, 143.93 75.68, 132.41 78.73 C120.88 81.78, 106.98 84.77, 94.2 85.39 C81.41 86.01, 67.49 84.88, 55.68 82.45 C43.87 80.01, 32.06 75.36, 23.33 70.78 C14.59 66.2, 6.86 60.92, 3.27 54.95 C-0.31 48.99, -0.37 41.15, 1.83 35 C4.02 28.86, 9.18 22.92, 16.44 18.07 C23.69 13.22, 34.09 8.84, 45.34 5.88 C56.58 2.93, 70.27 0.65, 83.9 0.34 C97.54 0.02, 119.71 3.07, 127.17 3.99 C134.63 4.91, 129.34 5.35, 128.66 5.87 M87.39 1.11 C99.71 0.21, 113.05 1.18, 124.58 3.49 C136.11 5.81, 148.01 10.51, 156.58 15.01 C165.15 19.51, 172.58 24.83, 176.01 30.49 C179.45 36.14, 179.83 42.71, 177.21 48.93 C174.59 55.15, 167.89 62.56, 160.3 67.79 C152.71 73.03, 143.1 77.48, 131.67 80.34 C120.25 83.2, 104.5 84.64, 91.73 84.97 C78.96 85.29, 66.63 84.96, 55.06 82.3 C43.49 79.64, 30.98 74.01, 22.32 69.02 C13.65 64.03, 6.31 58.15, 3.07 52.35 C-0.17 46.55, 0.56 40.24, 2.89 34.23 C5.22 28.23, 9.39 21.22, 17.03 16.32 C24.66 11.42, 37.19 7.46, 48.71 4.83 C60.22 2.2, 79.92 1.13, 86.12 0.52 C92.32 -0.09, 85.67 0.63, 85.91 1.17" stroke="#1e1e1e" stroke-width="2" fill="none"></path></g><g transform="translate(818.3808189006052 548.1146284662385) rotate(0 26.383333206176758 25)"><text x="26.383333206176758" y="17.52" font-family="Virgil, Segoe UI Emoji" font-size="20px" fill="#1e1e1e" text-anchor="middle" style="white-space: pre;" direction="ltr" dominant-baseline="alphabetic">Error</text><text x="26.383333206176758" y="42.519999999999996" font-family="Virgil, Segoe UI Emoji" font-size="20px" fill="#1e1e1e" text-anchor="middle" style="white-space: pre;" direction="ltr" dominant-baseline="alphabetic">Input</text></g><g stroke-linecap="round" transform="translate(53.39215686274565 551.7777777777782) rotate(0 89.47058823529414 42.5)"><path d="M47.86 4.46 C58.16 1.32, 73.01 1.01, 86.06 0.92 C99.11 0.82, 114.42 1.7, 126.19 3.9 C137.95 6.1, 148.51 9.42, 156.65 14.13 C164.79 18.85, 171.63 26.02, 175.04 32.19 C178.45 38.36, 179.41 45.27, 177.12 51.17 C174.83 57.08, 169.08 62.74, 161.3 67.63 C153.53 72.53, 141.84 77.78, 130.46 80.55 C119.08 83.33, 105.84 84.17, 93.03 84.28 C80.22 84.4, 65.59 83.57, 53.6 81.27 C41.61 78.97, 29.52 75.1, 21.09 70.48 C12.67 65.86, 6.22 59.53, 3.06 53.54 C-0.11 47.55, -0.21 40.52, 2.11 34.52 C4.42 28.52, 8.22 22.81, 16.97 17.52 C25.71 12.23, 47.15 5.3, 54.59 2.77 C62.03 0.24, 61 1.41, 61.58 2.33 M120.43 3.03 C132.51 4.34, 145.39 8.08, 154.38 12.24 C163.37 16.41, 170.64 22.01, 174.38 28.04 C178.12 34.06, 178.52 42.01, 176.84 48.38 C175.16 54.76, 171.44 61.16, 164.3 66.26 C157.16 71.37, 144.94 75.78, 133.99 79.01 C123.03 82.24, 111.16 85.31, 98.57 85.64 C85.99 85.97, 70.78 83.51, 58.47 81 C46.16 78.49, 33.49 74.9, 24.7 70.59 C15.91 66.28, 9.75 60.94, 5.72 55.13 C1.68 49.31, -1.24 41.76, 0.49 35.72 C2.22 29.69, 8.85 23.78, 16.08 18.91 C23.31 14.03, 32.96 9.55, 43.86 6.48 C54.76 3.4, 68.4 1.17, 81.47 0.46 C94.54 -0.25, 115.78 1.92, 122.27 2.21 C128.77 2.49, 121.28 1.18, 120.45 2.16" stroke="#e03131" stroke-width="2" fill="none"></path></g><g transform="translate(108.23915185246756 581.7257395773499) rotate(0 34.858333587646484 12.5)"><text x="34.858333587646484" y="17.52" font-family="Virgil, Segoe UI Emoji" font-size="20px" fill="#e03131" text-anchor="middle" style="white-space: pre;" direction="ltr" dominant-baseline="alphabetic">Output</text></g><g stroke-linecap="round" transform="translate(68.9477124183004 265.66666666666697) rotate(0 89.47058823529414 30.204402515723274)"><path d="M73.96 0.75 C85.75 -0.72, 100.07 -0.92, 112.29 0.27 C124.52 1.47, 137.46 4.83, 147.33 7.93 C157.21 11.03, 166.27 14.99, 171.55 18.88 C176.82 22.77, 179.58 26.93, 178.97 31.26 C178.36 35.6, 173.9 41.1, 167.87 44.88 C161.84 48.66, 153.12 51.45, 142.78 53.94 C132.43 56.43, 118.71 58.85, 105.82 59.82 C92.93 60.79, 77.96 60.85, 65.45 59.75 C52.95 58.65, 40.4 56.13, 30.77 53.21 C21.14 50.29, 12.92 46.21, 7.68 42.23 C2.43 38.24, -1.22 33.79, -0.7 29.3 C-0.18 24.81, 4.53 19.32, 10.78 15.29 C17.02 11.26, 25.11 7.46, 36.76 5.1 C48.42 2.74, 72.07 1.93, 80.7 1.13 C89.33 0.33, 88.4 0.01, 88.53 0.29 M98.31 -1.22 C110.43 -1.07, 123.86 2.03, 134.96 4.59 C146.06 7.15, 157.92 10.52, 164.92 14.17 C171.92 17.82, 175.22 22.08, 176.97 26.5 C178.72 30.91, 179.25 36.75, 175.42 40.68 C171.58 44.6, 163.2 47.27, 153.95 50.05 C144.7 52.83, 131.93 55.73, 119.91 57.36 C107.88 58.98, 94.71 60.2, 81.79 59.79 C68.87 59.39, 53.42 57.16, 42.37 54.93 C31.31 52.7, 22.38 49.83, 15.46 46.41 C8.55 42.99, 2.68 38.66, 0.87 34.4 C-0.93 30.13, 0.3 25.14, 4.62 20.83 C8.94 16.53, 17.72 11.96, 26.79 8.56 C35.87 5.16, 47.22 1.62, 59.08 0.44 C70.94 -0.73, 91.22 1.64, 97.95 1.51 C104.69 1.37, 99.53 -0.6, 99.48 -0.38" stroke="#1e1e1e" stroke-width="2" fill="none"></path></g><g transform="translate(132.26970778949203 283.5133313418343) rotate(0 26.383333206176758 12.5)"><text x="26.383333206176758" y="17.52" font-family="Virgil, Segoe UI Emoji" font-size="20px" fill="#1e1e1e" text-anchor="middle" style="white-space: pre;" direction="ltr" dominant-baseline="alphabetic">Input</text></g><g stroke-linecap="round" transform="translate(790.0588235294126 281.36897274633156) rotate(0 89.47058823529414 30.204402515723302)"><path d="M100.36 0.75 C112.85 1.07, 127.46 3.25, 138.45 5.53 C149.45 7.8, 159.7 10.67, 166.31 14.39 C172.93 18.11, 176.88 23.54, 178.15 27.82 C179.43 32.1, 178.37 36.06, 173.97 40.07 C169.56 44.09, 161.23 48.69, 151.74 51.9 C142.24 55.11, 129.34 57.92, 117.01 59.34 C104.67 60.75, 90.45 61.02, 77.74 60.39 C65.04 59.77, 51.74 57.95, 40.77 55.58 C29.81 53.21, 18.67 50.05, 11.96 46.18 C5.24 42.3, 1.56 36.88, 0.49 32.35 C-0.57 27.81, 1.05 22.79, 5.57 18.97 C10.1 15.14, 18.18 12.36, 27.65 9.39 C37.12 6.42, 47.64 2.57, 62.39 1.17 C77.15 -0.23, 104.97 0.53, 116.18 1 C127.39 1.46, 130.21 3.46, 129.67 3.98 M50.14 3.42 C60.57 1.16, 74.27 -0.04, 87.37 0 C100.47 0.04, 116.73 2.03, 128.74 3.68 C140.75 5.33, 151.49 6.84, 159.44 9.88 C167.4 12.93, 173.35 17.59, 176.48 21.97 C179.61 26.36, 181.06 31.89, 178.24 36.2 C175.43 40.5, 167.59 44.3, 159.59 47.8 C151.59 51.29, 141.76 54.97, 130.24 57.16 C118.72 59.34, 103.63 60.78, 90.48 60.89 C77.32 61, 62.83 59.85, 51.3 57.83 C39.77 55.8, 29.43 52.4, 21.3 48.73 C13.17 45.06, 5.8 39.76, 2.5 35.83 C-0.8 31.89, -1.44 29.33, 1.5 25.1 C4.45 20.87, 12.08 14.17, 20.16 10.45 C28.23 6.74, 44.96 4.06, 49.95 2.79 C54.94 1.51, 49.55 2.27, 50.07 2.81" stroke="#e03131" stroke-width="2" fill="none"></path></g><g transform="translate(854.5808196635437 299.2156374214989) rotate(0 25.183332443237305 12.5)"><text x="25.183332443237305" y="17.52" font-family="Virgil, Segoe UI Emoji" font-size="20px" fill="#e03131" text-anchor="middle" style="white-space: pre;" direction="ltr" dominant-baseline="alphabetic">Error</text></g><g stroke-linecap="round" transform="translate(400 736.6666666666672) rotate(0 139.44444444444434 55)"><path d="M27.5 0 C98.95 2.38, 173.43 2.52, 251.39 0 M27.5 0 C97.59 1.38, 166.44 1.07, 251.39 0 M251.39 0 C269.52 -0.52, 279.73 9.42, 278.89 27.5 M251.39 0 C270.3 1.06, 279.2 7.35, 278.89 27.5 M278.89 27.5 C278.8 45.04, 279.19 67.24, 278.89 82.5 M278.89 27.5 C278.33 48.16, 278.83 67.81, 278.89 82.5 M278.89 82.5 C278.61 99, 268.01 110.18, 251.39 110 M278.89 82.5 C279.22 101.31, 267.74 110, 251.39 110 M251.39 110 C165.15 110.64, 80.41 112.25, 27.5 110 M251.39 110 C191.84 108.6, 131 108.96, 27.5 110 M27.5 110 C9.06 110.39, 1.7 100.14, 0 82.5 M27.5 110 C9.28 107.91, -0.86 102.91, 0 82.5 M0 82.5 C-0.02 60.97, -0.71 40.08, 0 27.5 M0 82.5 C-0.63 65.16, 0.97 47.63, 0 27.5 M0 27.5 C1.37 7.72, 8.74 -0.15, 27.5 0 M0 27.5 C1.61 10, 8.11 1.31, 27.5 0" stroke="#1e1e1e" stroke-width="2" fill="none"></path></g><g transform="translate(440.8861100938584 766.6666666666672) rotate(0 98.55833435058594 25)"><text x="98.55833435058594" y="17.52" font-family="Virgil, Segoe UI Emoji" font-size="20px" fill="#1e1e1e" text-anchor="middle" style="white-space: pre;" direction="ltr" dominant-baseline="alphabetic">Modulation Receiver</text><text x="98.55833435058594" y="42.519999999999996" font-family="Virgil, Segoe UI Emoji" font-size="20px" fill="#1e1e1e" text-anchor="middle" style="white-space: pre;" direction="ltr" dominant-baseline="alphabetic">Output Transmitter</text></g><g stroke-linecap="round" transform="translate(378.8888888888896 57.77777777777834) rotate(0 142.77777777777771 42.5)"><path d="M21.25 0 C106.03 -1.59, 189.74 -0.5, 264.31 0 M21.25 0 C110.5 -0.87, 200.26 -0.55, 264.31 0 M264.31 0 C278.98 0.92, 285.82 5.51, 285.56 21.25 M264.31 0 C279.47 0.27, 284.14 6.9, 285.56 21.25 M285.56 21.25 C287.05 30.49, 285.59 40.26, 285.56 63.75 M285.56 21.25 C285.46 33.95, 284.75 48.56, 285.56 63.75 M285.56 63.75 C285.84 78.33, 276.75 85, 264.31 85 M285.56 63.75 C287.36 79.15, 279.28 83.04, 264.31 85 M264.31 85 C191.45 86.47, 118.48 88.19, 21.25 85 M264.31 85 C193.66 85.81, 123.8 85.36, 21.25 85 M21.25 85 C7.19 83.18, -0.75 79.72, 0 63.75 M21.25 85 C8.83 83.26, 0.04 77.42, 0 63.75 M0 63.75 C0.52 52.55, 1.39 40.47, 0 21.25 M0 63.75 C0.3 50.52, -0.59 38.67, 0 21.25 M0 21.25 C1.4 7.81, 6.16 1.14, 21.25 0 M0 21.25 C0.65 6.02, 4.86 -2.25, 21.25 0" stroke="#1e1e1e" stroke-width="2" fill="none"></path></g><g transform="translate(406.0416666666674 75.27777777777834) rotate(0 115.625 25)"><text x="115.625" y="17.52" font-family="Virgil, Segoe UI Emoji" font-size="20px" fill="#1e1e1e" text-anchor="middle" style="white-space: pre;" direction="ltr" dominant-baseline="alphabetic">Modulation Transmitter</text><text x="115.625" y="42.519999999999996" font-family="Virgil, Segoe UI Emoji" font-size="20px" fill="#1e1e1e" text-anchor="middle" style="white-space: pre;" direction="ltr" dominant-baseline="alphabetic">Input Receiver</text></g><g stroke-linecap="round" transform="translate(10 10) rotate(0 510 435.55555555555543)"><path d="M336.4 26.35 C360.64 11.32, 395.17 10.69, 425.22 6.33 C455.27 1.97, 486.51 -0.18, 516.71 0.17 C546.91 0.52, 576.67 3.6, 606.42 8.42 C636.16 13.23, 666.75 19.84, 695.16 29.06 C723.56 38.28, 750.98 49.91, 776.84 63.74 C802.71 77.58, 827.6 94.71, 850.35 112.07 C873.09 129.42, 894.71 147.62, 913.32 167.86 C931.93 188.1, 948.05 210.44, 962.02 233.49 C975.99 256.54, 988.21 281.37, 997.14 306.16 C1006.06 330.95, 1012.05 356.67, 1015.57 382.24 C1019.09 407.81, 1019.87 433.64, 1018.25 459.57 C1016.64 485.5, 1012.8 512.61, 1005.88 537.81 C998.95 563.01, 988.96 586.96, 976.68 610.77 C964.39 634.59, 949.14 659.06, 932.16 680.72 C915.18 702.38, 896.2 722.36, 874.82 740.74 C853.43 759.12, 828.85 775.94, 803.84 791.01 C778.84 806.09, 752.22 820.25, 724.8 831.17 C697.39 842.1, 668.67 850.01, 639.34 856.58 C610 863.16, 579.03 868.55, 548.81 870.62 C518.58 872.69, 488 871.76, 457.97 868.98 C427.94 866.19, 397.74 860.99, 368.63 853.91 C339.52 846.83, 310.6 838, 283.3 826.48 C256.01 814.97, 229.37 800.51, 204.85 784.82 C180.33 769.12, 156.67 751.13, 136.17 732.3 C115.68 713.46, 98.24 693.53, 81.86 671.79 C65.47 650.05, 49.64 626, 37.87 601.84 C26.09 577.68, 17.58 552.27, 11.22 526.84 C4.86 501.41, 0.64 475.1, -0.29 449.23 C-1.22 423.37, 1 397.35, 5.63 371.67 C10.27 346, 17.81 319.58, 27.51 295.19 C37.21 270.81, 49.27 247.82, 63.83 225.37 C78.39 202.93, 95.77 180.78, 114.88 160.52 C133.98 140.27, 155.32 120.67, 178.46 103.85 C201.6 87.04, 222.24 74.12, 253.73 59.65 C285.22 45.17, 342.88 23.71, 367.38 17.01 C391.88 10.3, 398.5 12.54, 400.75 19.43 M269.11 52.2 C290.41 34.55, 324.58 29.09, 353.77 20.9 C382.96 12.71, 413.99 6.22, 444.26 3.06 C474.53 -0.1, 504.88 0.74, 535.37 1.93 C565.87 3.11, 597.5 4.4, 627.25 10.16 C656.99 15.92, 686.31 26.13, 713.85 36.5 C741.38 46.87, 767.4 58.2, 792.44 72.37 C817.47 86.55, 841.96 103.31, 864.04 121.56 C886.12 139.8, 907.25 160.82, 924.9 181.84 C942.55 202.87, 957.05 224.35, 969.92 247.72 C982.79 271.08, 994.1 297.03, 1002.12 322.03 C1010.13 347.03, 1015.53 372.14, 1018.03 397.71 C1020.53 423.28, 1019.76 449.33, 1017.12 475.44 C1014.48 501.55, 1010.42 529.31, 1002.2 554.39 C993.97 579.47, 981.23 602.6, 967.76 625.91 C954.28 649.21, 939.32 673.18, 921.35 694.22 C903.39 715.26, 882.14 734.21, 859.95 752.14 C837.76 770.06, 813.73 787.75, 788.21 801.75 C762.7 815.75, 734.58 826.42, 706.88 836.12 C679.17 845.81, 651.43 854.08, 621.99 859.92 C592.56 865.77, 560.54 870.03, 530.25 871.17 C499.96 872.32, 470.5 870.61, 440.26 866.8 C410.01 863, 377.98 856.39, 348.8 848.34 C319.62 840.3, 291.58 830.77, 265.18 818.54 C238.78 806.3, 214.01 791.11, 190.41 774.94 C166.82 758.76, 143.47 741.29, 123.6 721.5 C103.73 701.7, 86.4 678.84, 71.17 656.17 C55.94 633.49, 42.77 609.48, 32.2 585.45 C21.64 561.42, 12.93 537.21, 7.76 511.96 C2.6 486.72, 0.91 459.81, 1.21 433.99 C1.51 408.17, 4.29 382.47, 9.57 357.03 C14.85 331.59, 22.04 305.77, 32.88 281.35 C43.72 256.93, 58.91 232.75, 74.59 210.51 C90.28 188.27, 106.82 167.44, 126.98 147.92 C147.13 128.41, 171.78 109.44, 195.51 93.41 C219.24 77.38, 256.05 57.61, 269.34 51.75 C282.63 45.9, 270.82 52.06, 275.24 58.29" stroke="#00ffff" stroke-width="4" fill="none"></path></g><g stroke-linecap="round" transform="translate(521.8080391257827 363.3333333333335) rotate(0 125.20709154821941 76.11111111111109)"><path d="M157.5 19.25 C179.71 34.34, 192.54 45.84, 218.91 57.75 C251.82 75.43, 248.28 76.4, 218.91 96.25 C202.07 103.96, 187.71 115.83, 157.5 132.97 C125.65 149.86, 124.58 149.01, 94.5 132.97 C68.49 119.03, 47.83 102.75, 31.5 96.25 C0.61 75.56, 3.58 74.1, 31.5 57.75 C46.41 49.79, 65.12 39.15, 94.5 19.25 C123.21 -1.85, 123.85 1.14, 157.5 19.25" stroke="none" stroke-width="0" fill="#ffffff"></path><path d="M157.5 19.25 C179.16 32.48, 198.74 46.54, 218.91 57.75 M157.5 19.25 C176.94 30.22, 196.44 43.16, 218.91 57.75 M218.91 57.75 C249.18 76.84, 249.07 77.24, 218.91 96.25 M218.91 57.75 C252.67 78.66, 249.67 76.98, 218.91 96.25 M218.91 96.25 C201.69 105.65, 185 113.84, 157.5 132.97 M218.91 96.25 C199.13 107.72, 181.81 119.61, 157.5 132.97 M157.5 132.97 C126.71 150.52, 125.95 150.56, 94.5 132.97 M157.5 132.97 C128.1 151.51, 125.49 150.65, 94.5 132.97 M94.5 132.97 C71.14 118.93, 46.84 106.73, 31.5 96.25 M94.5 132.97 C77.39 123.56, 61.8 112.15, 31.5 96.25 M31.5 96.25 C0.03 76.57, -0.85 75.88, 31.5 57.75 M31.5 96.25 C-1.22 77.33, -0.3 78.33, 31.5 57.75 M31.5 57.75 C45.36 49.72, 59 39.08, 94.5 19.25 M31.5 57.75 C49.2 46.83, 68.37 34.54, 94.5 19.25 M94.5 19.25 C124.07 -1.95, 126.5 -1.45, 157.5 19.25 M94.5 19.25 C123.74 1.88, 124.35 0.38, 157.5 19.25" stroke="#e03131" stroke-width="2" fill="none"></path></g><g transform="translate(591.5699177245995 426.888888888889) rotate(0 55.34166717529297 12.5)"><text x="55.34166717529297" y="17.52" font-family="Virgil, Segoe UI Emoji" font-size="20px" fill="#e03131" text-anchor="middle" style="white-space: pre;" direction="ltr" dominant-baseline="alphabetic">Modulated?</text></g><g stroke-linecap="round" transform="translate(200.0000000000009 171.1111111111112) rotate(0 48.33333333333337 17.5)"><path d="M8.75 0 C31.97 0.17, 55.59 -0.07, 87.92 0 M8.75 0 C25.64 -0.17, 43.1 0.03, 87.92 0 M87.92 0 C95.71 1.44, 96.02 2.9, 96.67 8.75 M87.92 0 C92.87 0.47, 96.94 1.51, 96.67 8.75 M96.67 8.75 C96.66 14.01, 96.87 17.25, 96.67 26.25 M96.67 8.75 C97.11 13.26, 96.78 18.52, 96.67 26.25 M96.67 26.25 C98.49 31.47, 93.31 33.63, 87.92 35 M96.67 26.25 C98.54 31.86, 94.05 35.74, 87.92 35 M87.92 35 C63.9 35.78, 39.45 34.92, 8.75 35 M87.92 35 C57.04 34.19, 25.71 33.84, 8.75 35 M8.75 35 C1.86 35.28, -0.26 33.24, 0 26.25 M8.75 35 C1.3 34.87, 2.06 31.36, 0 26.25 M0 26.25 C0 21.03, 0.76 12.55, 0 8.75 M0 26.25 C-0.9 19.15, 0.17 13.13, 0 8.75 M0 8.75 C-1.97 4.55, 1.49 0.33, 8.75 0 M0 8.75 C0.27 2.01, 2.81 2.12, 8.75 0" stroke="#1e1e1e" stroke-width="2" fill="none"></path></g><g transform="translate(211.9583333333344 176.1111111111112) rotate(0 36.375 12.5)"><text x="36.375" y="17.52" font-family="Virgil, Segoe UI Emoji" font-size="20px" fill="#1e1e1e" text-anchor="middle" style="white-space: pre;" direction="ltr" dominant-baseline="alphabetic">Excited</text></g><g stroke-linecap="round" transform="translate(733.3333333333339 671.1111111111109) rotate(0 80.55555555555554 17.5)"><path d="M8.75 0 C53.87 0.68, 102.38 -1.43, 152.36 0 M8.75 0 C51.67 0.55, 92.31 -0.18, 152.36 0 M152.36 0 C157.43 0.41, 161.34 1.69, 161.11 8.75 M152.36 0 C157.87 -2.11, 159.15 3.12, 161.11 8.75 M161.11 8.75 C161.15 15.63, 162.09 20.37, 161.11 26.25 M161.11 8.75 C161.9 12.24, 160.91 15.68, 161.11 26.25 M161.11 26.25 C162.74 31.89, 158.46 35.65, 152.36 35 M161.11 26.25 C160.99 32.53, 160.15 34.2, 152.36 35 M152.36 35 C110.35 35.98, 63.21 34.49, 8.75 35 M152.36 35 C111.85 34.34, 72.27 34.77, 8.75 35 M8.75 35 C1.51 34.88, 1.79 31.46, 0 26.25 M8.75 35 C4.49 33.33, -0.49 31.91, 0 26.25 M0 26.25 C0.93 20.27, -0.87 11.6, 0 8.75 M0 26.25 C-0.9 23.42, -0.67 19.32, 0 8.75 M0 8.75 C0.24 2.13, 2.83 1.85, 8.75 0 M0 8.75 C1.94 1, 4.53 0.9, 8.75 0" stroke="#1e1e1e" stroke-width="2" fill="none"></path></g><g transform="translate(763.2055545383037 676.1111111111109) rotate(0 50.68333435058594 12.5)"><text x="50.68333435058594" y="17.52" font-family="Virgil, Segoe UI Emoji" font-size="20px" fill="#1e1e1e" text-anchor="middle" style="white-space: pre;" direction="ltr" dominant-baseline="alphabetic">Modulated</text></g><g stroke-linecap="round" transform="translate(453.33333333333394 294.4444444444448) rotate(0 70.55555555555543 24.444444444444457)"><path d="M12.22 0 C51.46 0.52, 95.25 0.6, 128.89 0 C134.68 -1.42, 137.9 7.11, 141.11 12.22 C141.57 23.07, 139.39 30.29, 141.11 36.67 C139.67 48.39, 134.14 46.97, 128.89 48.89 C87.02 51.8, 43.04 46, 12.22 48.89 C2.23 46.74, 1.14 45.76, 0 36.67 C0.88 26.81, 1.58 18.66, 0 12.22 C0.05 5.97, 6.97 1.5, 12.22 0" stroke="none" stroke-width="0" fill="#ffffff"></path><path d="M12.22 0 C52.13 -0.63, 92.6 2.68, 128.89 0 M12.22 0 C55.24 0.21, 99.15 -0.6, 128.89 0 M128.89 0 C136.76 -1.83, 139.4 4.25, 141.11 12.22 M128.89 0 C137.37 0.48, 139.13 4.07, 141.11 12.22 M141.11 12.22 C139.54 21.43, 139.58 32.56, 141.11 36.67 M141.11 12.22 C141.87 18.71, 141.19 25.7, 141.11 36.67 M141.11 36.67 C141 45.2, 138.74 48.2, 128.89 48.89 M141.11 36.67 C141.23 42.72, 136.17 50.96, 128.89 48.89 M128.89 48.89 C84.59 48.06, 40.04 47.85, 12.22 48.89 M128.89 48.89 C91.53 49.5, 56.48 49.25, 12.22 48.89 M12.22 48.89 C5.44 47.44, -0.43 44.66, 0 36.67 M12.22 48.89 C5.69 49.72, -1.06 46.12, 0 36.67 M0 36.67 C-1.84 29.14, -1.33 18.64, 0 12.22 M0 36.67 C0.29 26.94, 0.13 18.93, 0 12.22 M0 12.22 C1.69 2.41, 5.47 0.78, 12.22 0 M0 12.22 C-1 2.71, 3.69 -1.07, 12.22 0" stroke="#e03131" stroke-width="2" fill="none"></path></g><g transform="translate(498.2138896518288 306.38888888888926) rotate(0 25.674999237060547 12.5)"><text x="25.674999237060547" y="17.52" font-family="Virgil, Segoe UI Emoji" font-size="20px" fill="#e03131" text-anchor="middle" style="white-space: pre;" direction="ltr" dominant-baseline="alphabetic">Gate</text></g><g stroke-linecap="round" transform="translate(273.3333333333312 367.77777777777806) rotate(0 122.4293137704417 76.11111111111109)"><path d="M153.75 19.25 C168.89 29.02, 185.43 44.57, 214.11 57.75 C246.91 75.51, 243.43 77.64, 214.11 96.25 C190.72 113.19, 167.6 120.88, 153.75 132.97 C125.42 150.43, 122.83 153.2, 92.25 132.97 C66.85 115.88, 46.25 104.89, 30.75 96.25 C0.52 75.43, 2.46 77.68, 30.75 57.75 C45.28 51.22, 62.87 41.59, 92.25 19.25 C125.18 3.36, 121.69 2.13, 153.75 19.25" stroke="none" stroke-width="0" fill="#ffffff"></path><path d="M153.75 19.25 C169.28 26.97, 181.86 35.8, 214.11 57.75 M153.75 19.25 C172.98 31.03, 191.6 44.37, 214.11 57.75 M214.11 57.75 C245.15 77.41, 243.14 77, 214.11 96.25 M214.11 57.75 C246.67 78.24, 245.67 75.04, 214.11 96.25 M214.11 96.25 C195.22 107.29, 176.51 120.29, 153.75 132.97 M214.11 96.25 C196.57 107.31, 179.94 117.43, 153.75 132.97 M153.75 132.97 C123.1 150.4, 122.25 154.03, 92.25 132.97 M153.75 132.97 C124.75 150.49, 123.04 151.73, 92.25 132.97 M92.25 132.97 C76.91 122.93, 61.96 112.34, 30.75 96.25 M92.25 132.97 C74.51 121.25, 55.53 111.1, 30.75 96.25 M30.75 96.25 C1.4 77.72, -0.92 78.14, 30.75 57.75 M30.75 96.25 C0.65 75.94, -2.23 74.75, 30.75 57.75 M30.75 57.75 C52.64 44.41, 71.32 33.58, 92.25 19.25 M30.75 57.75 C47.63 46.32, 63.51 37.51, 92.25 19.25 M92.25 19.25 C122.13 -1.19, 122.67 -0.93, 153.75 19.25 M92.25 19.25 C124.23 0.81, 121.96 -1.27, 153.75 19.25" stroke="#e03131" stroke-width="2" fill="none"></path></g><g transform="translate(354.514657393845 431.3333333333336) rotate(0 41.03333282470703 12.5)"><text x="41.03333282470703" y="17.52" font-family="Virgil, Segoe UI Emoji" font-size="20px" fill="#e03131" text-anchor="middle" style="white-space: pre;" direction="ltr" dominant-baseline="alphabetic">Excited?</text></g><g transform="translate(385.55555555555384 482.2222222222225) rotate(0 11.983333587646484 12.5)"><text x="0" y="17.52" font-family="Virgil, Segoe UI Emoji" font-size="20px" fill="#e03131" text-anchor="start" style="white-space: pre;" direction="ltr" dominant-baseline="alphabetic">No</text></g><g transform="translate(634.4444444444453 370.0000000000002) rotate(0 11.983333587646484 12.5)"><text x="0" y="17.52" font-family="Virgil, Segoe UI Emoji" font-size="20px" fill="#e03131" text-anchor="start" style="white-space: pre;" direction="ltr" dominant-baseline="alphabetic">No</text></g><g stroke-linecap="round"><g transform="translate(762.2222222222226 440.948301535062) rotate(0 36.12761529804038 1.0449524278619151)"><path d="M-0.17 -1.1 C11.68 -0.61, 59.13 1.62, 71.23 2.2 M-1.72 0.94 C10.48 1.71, 61.16 3.32, 73.4 3.79" stroke="#e03131" stroke-width="2" fill="none"></path></g><g transform="translate(762.2222222222226 440.948301535062) rotate(0 36.12761529804038 1.0449524278619151)"><path d="M49.62 11.51 C55.25 7.43, 64.67 7.02, 73.4 3.79 M49.62 11.51 C58.1 9.57, 65.3 5.71, 73.4 3.79" stroke="#e03131" stroke-width="2" fill="none"></path></g><g transform="translate(762.2222222222226 440.948301535062) rotate(0 36.12761529804038 1.0449524278619151)"><path d="M50.23 -5.58 C55.56 -4.34, 64.8 0.58, 73.4 3.79 M50.23 -5.58 C58.37 -2.04, 65.37 -0.42, 73.4 3.79" stroke="#e03131" stroke-width="2" fill="none"></path></g></g><mask></mask><g stroke-linecap="round"><g transform="translate(609.1674973134277 493.7189334302684) rotate(0 0 0)"><path d="M-0.3 0.03 C-0.29 0.1, 0.05 0.08, 0.05 0.07 M0.19 -0.26 C0.17 -0.28, -0.23 -0.62, -0.2 -0.51" stroke="#e03131" stroke-width="2" fill="none"></path></g><g transform="translate(609.1674973134277 493.7189334302684) rotate(0 0 0)"><path d="M-0.2 -0.51 C-0.2 -0.51, -0.2 -0.51, -0.2 -0.51 M-0.2 -0.51 C-0.2 -0.51, -0.2 -0.51, -0.2 -0.51" stroke="#e03131" stroke-width="2" fill="none"></path></g><g transform="translate(609.1674973134277 493.7189334302684) rotate(0 0 0)"><path d="M-0.2 -0.51 C-0.2 -0.51, -0.2 -0.51, -0.2 -0.51 M-0.2 -0.51 C-0.2 -0.51, -0.2 -0.51, -0.2 -0.51" stroke="#e03131" stroke-width="2" fill="none"></path></g></g><mask></mask><g transform="translate(724.4444444444443 424.44444444444457) rotate(0 16.058332443237305 12.5)"><text x="0" y="17.52" font-family="Virgil, Segoe UI Emoji" font-size="20px" fill="#e03131" text-anchor="start" style="white-space: pre;" direction="ltr" dominant-baseline="alphabetic">Yes</text></g><g stroke-linecap="round"><g transform="translate(374.44444444444434 99.16579634595018) rotate(0 -38.67322985090914 34.88267615312171)"><path d="M-1.03 0 C-13.79 11.69, -63.75 58.95, -76.4 70.41 M0.63 -1.05 C-12.23 10.28, -63.84 56.87, -76.86 68.63" stroke="#1e1e1e" stroke-width="2" fill="none"></path></g><g transform="translate(374.44444444444434 99.16579634595018) rotate(0 -38.67322985090914 34.88267615312171)"><path d="M-65.15 46.54 C-68.78 54.96, -71.39 61.03, -76.86 68.63 M-65.15 46.54 C-66.76 50.88, -70.41 55.25, -76.86 68.63" stroke="#1e1e1e" stroke-width="2" fill="none"></path></g><g transform="translate(374.44444444444434 99.16579634595018) rotate(0 -38.67322985090914 34.88267615312171)"><path d="M-53.69 59.23 C-60.95 63.56, -67.16 65.65, -76.86 68.63 M-53.69 59.23 C-57.76 60.75, -63.87 62.4, -76.86 68.63" stroke="#1e1e1e" stroke-width="2" fill="none"></path></g></g><mask></mask><g stroke-linecap="round"><g transform="translate(140.91322238452722 264.54445823880314) rotate(0 0 0)"><path d="M0.28 0.19 C0.35 0.14, 0.17 -0.22, 0.13 -0.3 M-0.01 -0.02 C0.06 -0.03, -0.05 0, -0.09 -0.01" stroke="#e03131" stroke-width="2" fill="none"></path></g><g transform="translate(140.91322238452722 264.54445823880314) rotate(0 0 0)"><path d="M-0.09 -0.01 C-0.09 -0.01, -0.09 -0.01, -0.09 -0.01 M-0.09 -0.01 C-0.09 -0.01, -0.09 -0.01, -0.09 -0.01" stroke="#e03131" stroke-width="2" fill="none"></path></g><g transform="translate(140.91322238452722 264.54445823880314) rotate(0 0 0)"><path d="M-0.09 -0.01 C-0.09 -0.01, -0.09 -0.01, -0.09 -0.01 M-0.09 -0.01 C-0.09 -0.01, -0.09 -0.01, -0.09 -0.01" stroke="#e03131" stroke-width="2" fill="none"></path></g></g><mask></mask><g stroke-linecap="round"><g transform="translate(119.64062154876046 475.0624440110288) rotate(0 12.200833452400275 40.6754855603063)"><path d="M0.42 -1.02 C4.33 12.26, 20.19 66.69, 24.37 80.35 M-0.81 1.06 C2.85 14.4, 19.06 67.86, 23.41 81.37" stroke="#e03131" stroke-width="2" fill="none"></path></g><g transform="translate(119.64062154876046 475.0624440110288) rotate(0 12.200833452400275 40.6754855603063)"><path d="M8.27 61.47 C12.41 68.91, 18.18 78.31, 23.41 81.37 M8.27 61.47 C13.12 66.84, 16.51 72.61, 23.41 81.37" stroke="#e03131" stroke-width="2" fill="none"></path></g><g transform="translate(119.64062154876046 475.0624440110288) rotate(0 12.200833452400275 40.6754855603063)"><path d="M24.6 56.4 C22.58 65.81, 22.17 77.13, 23.41 81.37 M24.6 56.4 C25.04 63.01, 24.04 70.15, 23.41 81.37" stroke="#e03131" stroke-width="2" fill="none"></path></g></g><mask></mask><g stroke-linecap="round"><g transform="translate(153.26862022616478 637.0368654044306) rotate(0 122.86568988691761 77.51883295850723)"><path d="M-0.03 -1 C14.35 18.68, 45.8 91.17, 86.71 117.04 C127.63 142.91, 218.8 147.9, 245.47 154.22 M-1.5 1.09 C12.78 21.03, 45.33 92.71, 86.34 118.38 C127.35 144.05, 217.7 148.84, 244.56 155.1" stroke="#e03131" stroke-width="2" fill="none"></path></g><g transform="translate(153.26862022616478 637.0368654044306) rotate(0 122.86568988691761 77.51883295850723)"><path d="M220.05 160.01 C226.65 160.19, 235.91 156.28, 244.56 155.1 M220.05 160.01 C225.82 159.22, 231.31 157.96, 244.56 155.1" stroke="#e03131" stroke-width="2" fill="none"></path></g><g transform="translate(153.26862022616478 637.0368654044306) rotate(0 122.86568988691761 77.51883295850723)"><path d="M222.63 143.11 C228.22 148.96, 236.62 150.71, 244.56 155.1 M222.63 143.11 C227.94 146.23, 232.83 148.88, 244.56 155.1" stroke="#e03131" stroke-width="2" fill="none"></path></g></g><mask></mask><g stroke-linecap="round"><g transform="translate(873.4872024679298 280.35601614883706) rotate(0 -103.96582345618708 -90.73356362997399)"><path d="M1.09 -0.37 C-8.6 -19.84, -23.52 -87.64, -58.2 -117.84 C-92.87 -148.04, -182.02 -171.04, -206.95 -181.58 M0.21 -1.61 C-9.67 -20.87, -24.72 -86.95, -59.29 -116.74 C-93.85 -146.52, -182.51 -169.82, -207.2 -180.32" stroke="#e03131" stroke-width="2" fill="none"></path></g><g transform="translate(873.4872024679298 280.35601614883706) rotate(0 -103.96582345618708 -90.73356362997399)"><path d="M-182.2 -180.61 C-190.27 -180.74, -198.46 -178.58, -207.2 -180.32 M-182.2 -180.61 C-189.52 -180.25, -195.88 -180.71, -207.2 -180.32" stroke="#e03131" stroke-width="2" fill="none"></path></g><g transform="translate(873.4872024679298 280.35601614883706) rotate(0 -103.96582345618708 -90.73356362997399)"><path d="M-187.87 -164.48 C-194.11 -169.46, -200.61 -172.1, -207.2 -180.32 M-187.87 -164.48 C-193.56 -168.82, -198.27 -173.97, -207.2 -180.32" stroke="#e03131" stroke-width="2" fill="none"></path></g></g><mask></mask><g stroke-linecap="round"><g transform="translate(280.81277554299504 438.06162655013327) rotate(0 -31.624237064162116 -0.942305513337601)"><path d="M-0.27 -0.82 C-10.83 -1.09, -51.8 -1.89, -62.27 -2 M1.8 1.36 C-8.93 1.32, -51.77 0.31, -62.7 -0.52" stroke="#e03131" stroke-width="2" fill="none"></path></g><g transform="translate(280.81277554299504 438.06162655013327) rotate(0 -31.624237064162116 -0.942305513337601)"><path d="M-38.84 -7.99 C-49.56 -3.49, -57.72 -1.94, -62.7 -0.52 M-38.84 -7.99 C-45.92 -5.81, -54.65 -3.89, -62.7 -0.52" stroke="#e03131" stroke-width="2" fill="none"></path></g><g transform="translate(280.81277554299504 438.06162655013327) rotate(0 -31.624237064162116 -0.942305513337601)"><path d="M-39.63 9.1 C-49.99 6.92, -57.84 1.78, -62.7 -0.52 M-39.63 9.1 C-46.44 5.6, -54.9 1.84, -62.7 -0.52" stroke="#e03131" stroke-width="2" fill="none"></path></g></g><mask></mask><g stroke-linecap="round"><g transform="translate(433.8719880621111 334.36377217999393) rotate(0 -17.933669686615758 16.8151556534433)"><path d="M0.98 -0.11 C-1.26 1.03, -7.56 0.36, -13.71 6.02 C-19.87 11.69, -32.41 29.33, -35.93 33.86 M0.04 -1.22 C-2.33 -0.38, -8.45 -1.98, -14.58 4.1 C-20.71 10.19, -33.48 30.3, -36.73 35.3" stroke="#e03131" stroke-width="2" fill="none"></path></g><g transform="translate(433.8719880621111 334.36377217999393) rotate(0 -17.933669686615758 16.8151556534433)"><path d="M-32.73 17.96 C-34.13 23.04, -34.5 27.53, -36.73 35.3 M-32.73 17.96 C-33.82 22.68, -35.47 29.83, -36.73 35.3" stroke="#e03131" stroke-width="2" fill="none"></path></g><g transform="translate(433.8719880621111 334.36377217999393) rotate(0 -17.933669686615758 16.8151556534433)"><path d="M-22.52 24.59 C-26.71 27.92, -29.92 30.56, -36.73 35.3 M-22.52 24.59 C-26.92 27.15, -31.84 32.19, -36.73 35.3" stroke="#e03131" stroke-width="2" fill="none"></path></g></g><mask></mask><g stroke-linecap="round"><g transform="translate(544.6133763084463 735.5555555555558) rotate(0 56.89503147922915 -111.44976254000369)"><path d="M0.16 0.39 C18.84 -15.11, 93.99 -55.82, 113.1 -93.1 C132.21 -130.38, 114.68 -201.5, 114.81 -223.31 M-1.22 -0.46 C17.22 -16.33, 92.82 -58.14, 112.12 -95.1 C131.42 -132.06, 114.24 -200.82, 114.58 -222.22" stroke="#e03131" stroke-width="2" fill="none"></path></g><g transform="translate(544.6133763084463 735.5555555555558) rotate(0 56.89503147922915 -111.44976254000369)"><path d="M125.41 -199.68 C121.94 -208.38, 117.55 -215.17, 114.58 -222.22 M125.41 -199.68 C122.15 -204.86, 120.41 -212.5, 114.58 -222.22" stroke="#e03131" stroke-width="2" fill="none"></path></g><g transform="translate(544.6133763084463 735.5555555555558) rotate(0 56.89503147922915 -111.44976254000369)"><path d="M108.39 -197.99 C111.42 -207.35, 113.53 -214.79, 114.58 -222.22 M108.39 -197.99 C109.65 -203.46, 112.42 -211.55, 114.58 -222.22" stroke="#e03131" stroke-width="2" fill="none"></path></g></g><mask></mask><g transform="translate(293.3333333333321 428.88888888888914) rotate(0 16.058332443237305 12.5)"><text x="0" y="17.52" font-family="Virgil, Segoe UI Emoji" font-size="20px" fill="#e03131" text-anchor="start" style="white-space: pre;" direction="ltr" dominant-baseline="alphabetic">Yes</text></g><g stroke-linecap="round"><g transform="translate(641.1111111111104 366.66666666666686) rotate(0 -22.77777777777692 -19.4444444444444)"><path d="M1.02 -0.42 C-1.37 -3.97, -6.55 -14.86, -14.38 -21.09 C-22.22 -27.32, -40.96 -34.69, -46.01 -37.81 M0.1 -1.68 C-2.44 -5.15, -7.45 -13.81, -15.3 -20.13 C-23.15 -26.44, -42.24 -36.41, -47.01 -39.58" stroke="#e03131" stroke-width="2" fill="none"></path></g><g transform="translate(641.1111111111104 366.66666666666686) rotate(0 -22.77777777777692 -19.4444444444444)"><path d="M-29.12 -36.25 C-35.03 -36.99, -41.32 -38.75, -47.01 -39.58 M-29.12 -36.25 C-36.11 -37.88, -43.49 -39.49, -47.01 -39.58" stroke="#e03131" stroke-width="2" fill="none"></path></g><g transform="translate(641.1111111111104 366.66666666666686) rotate(0 -22.77777777777692 -19.4444444444444)"><path d="M-35.44 -25.53 C-39.51 -29.48, -43.94 -34.39, -47.01 -39.58 M-35.44 -25.53 C-40.05 -31.3, -44.96 -37.09, -47.01 -39.58" stroke="#e03131" stroke-width="2" fill="none"></path></g></g><mask></mask><g stroke-linecap="round"><g transform="translate(530 142.2222222222224) rotate(0 -70.5555555555552 114.4444444444444)"><path d="M0.06 -1.09 C-18.52 15.27, -87.07 59.57, -110.45 97.75 C-133.83 135.93, -135.09 206.17, -140.2 227.98 M-1.37 0.95 C-20.23 17.04, -88.45 58.22, -111.64 96.19 C-134.82 134.17, -135.62 206.59, -140.49 228.83" stroke="#e03131" stroke-width="2" fill="none"></path></g><g transform="translate(530 142.2222222222224) rotate(0 -70.5555555555552 114.4444444444444)"><path d="M-145.99 204.44 C-145.78 213.07, -140.03 224.73, -140.49 228.83 M-145.99 204.44 C-145.18 209.37, -144.05 215.54, -140.49 228.83" stroke="#e03131" stroke-width="2" fill="none"></path></g><g transform="translate(530 142.2222222222224) rotate(0 -70.5555555555552 114.4444444444444)"><path d="M-129.03 206.61 C-135.34 214.41, -136.12 225.24, -140.49 228.83 M-129.03 206.61 C-132.02 211.01, -134.7 216.7, -140.49 228.83" stroke="#e03131" stroke-width="2" fill="none"></path></g></g><mask></mask><g stroke-linecap="round"><g transform="translate(677.7777777777783 794.4444444444446) rotate(0 67.22222222222172 -42.777777777777715)"><path d="M-0.45 1.08 C13.02 -2.78, 58.43 -9.76, 80.91 -24.24 C103.4 -38.72, 125.63 -75.48, 134.47 -85.81 M1.51 0.6 C14.9 -3.03, 58.41 -8.97, 80.44 -23.18 C102.48 -37.38, 124.8 -74.25, 133.71 -84.63" stroke="#1e1e1e" stroke-width="2" fill="none"></path></g><g transform="translate(677.7777777777783 794.4444444444446) rotate(0 67.22222222222172 -42.777777777777715)"><path d="M126.56 -60.68 C130.77 -66.44, 129.63 -75.23, 133.71 -84.63 M126.56 -60.68 C128.12 -67.16, 130.51 -73.4, 133.71 -84.63" stroke="#1e1e1e" stroke-width="2" fill="none"></path></g><g transform="translate(677.7777777777783 794.4444444444446) rotate(0 67.22222222222172 -42.777777777777715)"><path d="M112.84 -70.88 C121.13 -73.48, 124.19 -79.16, 133.71 -84.63 M112.84 -70.88 C118.18 -74.45, 124.39 -77.84, 133.71 -84.63" stroke="#1e1e1e" stroke-width="2" fill="none"></path></g></g><mask></mask><g stroke-linecap="round"><g transform="translate(920 396.66666666666686) rotate(0 -10 -25.555555555555543)"><path d="M0.91 -0.91 C-2.34 -9.65, -16.41 -42.89, -19.98 -51.37 M-0.07 1.23 C-3.44 -6.81, -17.34 -41.29, -20.92 -49.97" stroke="#e03131" stroke-width="2" fill="none"></path></g><g transform="translate(920 396.66666666666686) rotate(0 -10 -25.555555555555543)"><path d="M-4.13 -31.44 C-10.21 -36.14, -13.54 -41.89, -20.92 -49.97 M-4.13 -31.44 C-8.26 -35.36, -12.93 -40.51, -20.92 -49.97" stroke="#e03131" stroke-width="2" fill="none"></path></g><g transform="translate(920 396.66666666666686) rotate(0 -10 -25.555555555555543)"><path d="M-19.97 -24.99 C-21.95 -31.5, -21.12 -38.94, -20.92 -49.97 M-19.97 -24.99 C-20.2 -30.5, -21 -37.23, -20.92 -49.97" stroke="#e03131" stroke-width="2" fill="none"></path></g></g><mask></mask><g stroke-linecap="round"><g transform="translate(903.333333333333 536.6666666666669) rotate(0 10 -26.66666666666663)"><path d="M0.02 -0.26 C3.12 -9.11, 16.26 -45.19, 19.49 -54.01 M-1.43 -1.44 C1.39 -10.07, 14.99 -44.44, 18.27 -52.82" stroke="#e03131" stroke-width="2" fill="none"></path></g><g transform="translate(903.333333333333 536.6666666666669) rotate(0 10 -26.66666666666663)"><path d="M17.64 -27.83 C17.64 -38.08, 17.18 -47.68, 18.27 -52.82 M17.64 -27.83 C17.17 -35.74, 18.97 -43.85, 18.27 -52.82" stroke="#e03131" stroke-width="2" fill="none"></path></g><g transform="translate(903.333333333333 536.6666666666669) rotate(0 10 -26.66666666666663)"><path d="M1.72 -34.08 C7.65 -41.98, 13.19 -49.24, 18.27 -52.82 M1.72 -34.08 C6.24 -40.12, 13.04 -46.26, 18.27 -52.82" stroke="#e03131" stroke-width="2" fill="none"></path></g></g><mask></mask><g stroke-linecap="round"><g transform="translate(814.4444444444443 670.0000000000002) rotate(0 11.66666666666697 -25.555555555555543)"><path d="M-0.51 -0.67 C3.27 -9.12, 18.75 -42.65, 22.7 -50.94 M1.42 1.59 C5.59 -6.62, 21.59 -40.32, 25.08 -49.31" stroke="#1e1e1e" stroke-width="2" fill="none"></path></g><g transform="translate(814.4444444444443 670.0000000000002) rotate(0 11.66666666666697 -25.555555555555543)"><path d="M23.51 -24.36 C22.91 -32.95, 24.79 -39.68, 25.08 -49.31 M23.51 -24.36 C25.14 -33.6, 25.49 -42.94, 25.08 -49.31" stroke="#1e1e1e" stroke-width="2" fill="none"></path></g><g transform="translate(814.4444444444443 670.0000000000002) rotate(0 11.66666666666697 -25.555555555555543)"><path d="M7.84 -31.21 C11.96 -37.66, 18.56 -42.32, 25.08 -49.31 M7.84 -31.21 C15.03 -37.99, 20.98 -44.88, 25.08 -49.31" stroke="#1e1e1e" stroke-width="2" fill="none"></path></g></g><mask></mask><g stroke-linecap="round"><g transform="translate(247.77777777777828 208.88888888888914) rotate(0 -44.4444444444448 28.333333333333314)"><path d="M-0.64 0.17 C-15.39 9.84, -74.2 47.95, -89.05 57.36 M1.23 -0.79 C-13.65 8.6, -75.33 45.82, -90.08 55.6" stroke="#1e1e1e" stroke-width="2" fill="none"></path></g><g transform="translate(247.77777777777828 208.88888888888914) rotate(0 -44.4444444444448 28.333333333333314)"><path d="M-74.74 35.86 C-78.51 40.59, -81.59 44.53, -90.08 55.6 M-74.74 35.86 C-78.39 40.89, -83.8 47.35, -90.08 55.6" stroke="#1e1e1e" stroke-width="2" fill="none"></path></g><g transform="translate(247.77777777777828 208.88888888888914) rotate(0 -44.4444444444448 28.333333333333314)"><path d="M-65.64 50.34 C-71.67 51.3, -77.09 51.51, -90.08 55.6 M-65.64 50.34 C-72.1 51.09, -80.18 53.28, -90.08 55.6" stroke="#1e1e1e" stroke-width="2" fill="none"></path></g></g><mask></mask><g stroke-linecap="round"><g transform="translate(148.8888888888887 325.55555555555577) rotate(0 -7.777777777777828 32.22222222222223)"><path d="M-0.16 0.69 C-2.79 11.39, -14.01 53.81, -16.4 64.37 M-1.7 0.01 C-3.89 10.89, -11.97 55.01, -14.13 65.87" stroke="#e03131" stroke-width="2" fill="none"></path></g><g transform="translate(148.8888888888887 325.55555555555577) rotate(0 -7.777777777777828 32.22222222222223)"><path d="M-18.14 41.2 C-15.96 45.89, -16.24 55.19, -14.13 65.87 M-18.14 41.2 C-17.11 47.78, -15.12 54.85, -14.13 65.87" stroke="#e03131" stroke-width="2" fill="none"></path></g><g transform="translate(148.8888888888887 325.55555555555577) rotate(0 -7.777777777777828 32.22222222222223)"><path d="M-1.34 44.39 C-3.32 48.27, -7.75 56.78, -14.13 65.87 M-1.34 44.39 C-4.85 50, -7.37 56.21, -14.13 65.87" stroke="#e03131" stroke-width="2" fill="none"></path></g></g><mask></mask><g stroke-linecap="round"><g transform="translate(613.333333333333 551.1111111111114) rotate(0 17.777777777778283 -18.888888888888914)"><path d="M-0.84 -0.07 C5.29 -6.54, 30.43 -31.72, 36.63 -38.15 M0.91 -1.15 C6.99 -7.52, 30.39 -30.71, 36.25 -36.81" stroke="#e03131" stroke-width="2" fill="none"></path></g><g transform="translate(613.333333333333 551.1111111111114) rotate(0 17.777777777778283 -18.888888888888914)"><path d="M25.84 -14.08 C28.58 -18.73, 31.06 -25.68, 36.25 -36.81 M25.84 -14.08 C28.96 -18.89, 30.17 -23.85, 36.25 -36.81" stroke="#e03131" stroke-width="2" fill="none"></path></g><g transform="translate(613.333333333333 551.1111111111114) rotate(0 17.777777777778283 -18.888888888888914)"><path d="M13.67 -26.09 C19.97 -27.21, 25.93 -30.71, 36.25 -36.81 M13.67 -26.09 C19.53 -28.15, 23.51 -30.38, 36.25 -36.81" stroke="#e03131" stroke-width="2" fill="none"></path></g></g><mask></mask></svg>